<?xml version="1.0" standalone="no"?>
<!DOCTYPE svg PUBLIC "-//W3C//DTD SVG 20010904//EN"
 "http://www.w3.org/TR/2001/REC-SVG-20010904/DTD/svg10.dtd">
<svg version="1.0" xmlns="http://www.w3.org/2000/svg"
 width="512.000000pt" height="512.000000pt" viewBox="0 0 512.000000 512.000000"
 preserveAspectRatio="xMidYMid meet">

<g transform="translate(0.000000,512.000000) scale(0.100000,-0.100000)"
fill="#ffffff" stroke="none">
<path d="M2455 4796 c-84 -21 -147 -57 -211 -121 -98 -97 -134 -197 -134 -370
l0 -95 -788 0 c-753 0 -792 -1 -866 -20 -113 -29 -190 -73 -276 -160 -87 -86
-131 -163 -160 -276 -19 -75 -20 -116 -20 -1494 0 -1378 1 -1419 20 -1494 29
-113 73 -190 160 -276 86 -87 163 -131 276 -160 76 -20 118 -20 2104 -20 1986
0 2028 0 2104 20 113 29 190 73 276 160 87 86 131 163 160 276 19 75 20 116
20 1494 0 1378 -1 1419 -20 1494 -29 113 -73 190 -160 276 -86 87 -163 131
-276 160 -74 19 -113 20 -866 20 l-788 0 0 95 c0 172 -36 272 -135 371 -112
113 -269 158 -420 120z m175 -306 c60 -31 80 -78 80 -190 l0 -90 -150 0 -150
0 0 93 c1 109 17 147 76 183 48 29 92 30 144 4z m2011 -606 c93 -43 159 -131
175 -231 l7 -43 -2262 0 c-2179 0 -2261 1 -2261 18 0 37 31 120 59 159 37 50
81 83 146 105 47 16 173 17 2070 15 l2020 -2 46 -21z m-1331 -744 c0 -252 26
-336 135 -445 212 -213 570 -161 708 102 48 93 57 147 57 343 l0 170 305 0
305 0 0 -1050 0 -1050 -455 0 -455 0 0 525 0 525 -148 0 -148 0 -12 -59 c-24
-117 -116 -209 -233 -233 l-59 -12 0 -148 0 -148 33 0 c46 0 177 34 226 60
l41 20 0 -265 0 -265 -1655 0 -1655 0 0 1050 0 1050 1505 0 1505 0 0 -170z
m600 5 c0 -194 -11 -230 -80 -265 -51 -26 -93 -25 -142 2 -68 39 -78 71 -78
263 l0 165 150 0 150 0 0 -165z m906 -2277 c-16 -101 -82 -189 -175 -232 l-46
-21 -2035 0 -2035 0 -46 21 c-93 43 -159 131 -175 232 l-7 42 2263 0 2263 0
-7 -42z"/>
<path d="M1255 2996 c-84 -21 -147 -57 -211 -121 -65 -65 -105 -136 -123 -223
-15 -72 -15 -713 0 -784 19 -86 59 -158 124 -223 172 -173 440 -178 621 -13
59 54 116 156 133 236 15 72 15 713 0 784 -19 86 -59 158 -124 224 -112 113
-269 158 -420 120z m175 -306 c26 -13 47 -34 60 -60 19 -37 20 -58 20 -370 0
-312 -1 -333 -20 -370 -23 -45 -80 -80 -131 -80 -46 0 -108 39 -130 82 -18 34
-19 62 -19 370 1 375 2 379 76 424 48 29 92 30 144 4z"/>
<path d="M2455 2996 c-84 -21 -147 -57 -211 -121 -65 -65 -105 -136 -123 -223
-15 -72 -15 -713 0 -784 19 -86 59 -158 124 -223 172 -173 440 -178 621 -13
59 54 116 156 133 236 15 72 15 713 0 784 -19 86 -59 158 -124 224 -112 113
-269 158 -420 120z m175 -306 c26 -13 47 -34 60 -60 19 -37 20 -58 20 -370 0
-312 -1 -333 -20 -370 -23 -45 -80 -80 -131 -80 -46 0 -108 39 -130 82 -18 34
-19 62 -19 370 1 375 2 379 76 424 48 29 92 30 144 4z"/>
</g>
</svg>
