<?xml version="1.0" standalone="no"?>
<!DOCTYPE svg PUBLIC "-//W3C//DTD SVG 20010904//EN"
 "http://www.w3.org/TR/2001/REC-SVG-20010904/DTD/svg10.dtd">
<svg version="1.0" xmlns="http://www.w3.org/2000/svg"
 width="512.000000pt" height="512.000000pt" viewBox="0 0 512.000000 512.000000"
 preserveAspectRatio="xMidYMid meet">

<g transform="translate(0.000000,512.000000) scale(0.100000,-0.100000)"
fill="#5C7AFF" stroke="none">
<path d="M2140 4210 l0 -910 -449 0 -449 0 -5 -557 c-6 -639 -16 -769 -93
-1158 -92 -468 -238 -874 -508 -1412 l-86 -173 1368 0 1369 0 97 201 c294 609
449 1136 527 1796 19 155 22 251 26 741 l5 562 -451 0 -451 0 0 910 0 910
-450 0 -450 0 0 -910z m600 -150 l0 -760 -150 0 -150 0 0 760 0 760 150 0 150
0 0 -760z m900 -1210 l0 -150 -1050 0 -1050 0 0 150 0 150 1050 0 1050 0 0
-150z m-1800 -472 c0 -13 -5 -86 -10 -163 -32 -432 -113 -839 -249 -1242 l-57
-171 139 -52 c76 -28 140 -50 142 -48 1 1 30 84 63 183 153 457 238 902 268
1408 l6 107 149 0 c148 0 149 0 149 -22 0 -13 -5 -86 -10 -163 -32 -432 -113
-839 -249 -1242 l-57 -171 139 -52 c76 -28 140 -50 142 -48 1 1 30 84 63 183
153 457 238 902 268 1408 l6 107 149 0 c148 0 149 0 149 -22 0 -13 -5 -86 -10
-163 -32 -432 -113 -839 -249 -1242 l-57 -171 139 -52 c76 -28 140 -50 142
-48 1 1 30 84 63 183 153 457 238 902 268 1408 l6 107 149 0 150 0 -6 -102
c-38 -659 -198 -1286 -479 -1880 l-55 -118 -1031 0 c-566 0 -1030 4 -1030 8 0
5 23 60 51 123 256 570 403 1189 445 1872 l6 97 149 0 c148 0 149 0 149 -22z"/>
<path d="M380 855 l-105 -105 108 -108 107 -107 107 107 108 108 -105 105
c-58 58 -107 105 -110 105 -3 0 -52 -47 -110 -105z"/>
<path d="M3980 855 l-105 -105 108 -108 107 -107 107 107 108 108 -105 105
c-58 58 -107 105 -110 105 -3 0 -52 -47 -110 -105z"/>
<path d="M4540 450 l0 -150 150 0 150 0 0 150 0 150 -150 0 -150 0 0 -150z"/>
<path d="M3640 150 l0 -150 150 0 150 0 0 150 0 150 -150 0 -150 0 0 -150z"/>
</g>
</svg>
