<?xml version="1.0" standalone="no"?>
<!DOCTYPE svg PUBLIC "-//W3C//DTD SVG 20010904//EN"
 "http://www.w3.org/TR/2001/REC-SVG-20010904/DTD/svg10.dtd">
<svg version="1.0" xmlns="http://www.w3.org/2000/svg"
 width="512.000000pt" height="512.000000pt" viewBox="0 0 512.000000 512.000000"
 preserveAspectRatio="xMidYMid meet">

<g transform="translate(0.000000,512.000000) scale(0.100000,-0.100000)"
fill="#5C7AFF" stroke="none">
<path d="M980 4624 c-234 -50 -436 -254 -485 -489 -22 -105 -22 -3045 0 -3150
50 -237 252 -439 491 -490 104 -22 3044 -22 3149 0 181 38 349 168 433 335 76
152 72 49 72 1730 0 1681 4 1578 -72 1730 -84 167 -252 297 -433 335 -102 21
-3055 21 -3155 -1z m3150 -332 c72 -35 114 -75 151 -144 l34 -63 0 -1525 0
-1525 -27 -51 c-40 -76 -70 -107 -140 -145 l-63 -34 -1525 0 -1525 0 -63 34
c-69 37 -109 79 -144 151 l-23 45 0 1525 0 1525 25 50 c43 86 125 154 215 176
17 4 707 6 1535 6 l1505 -2 45 -23z"/>
<path d="M2515 3673 c-67 -18 -71 -25 -500 -884 -294 -588 -415 -839 -415
-862 1 -77 62 -152 135 -164 53 -8 121 21 153 67 15 21 171 326 347 679 176
352 322 641 325 641 3 0 71 -132 152 -294 l147 -295 -179 -3 c-162 -3 -181 -5
-206 -24 -53 -39 -69 -71 -69 -134 0 -63 16 -95 69 -134 26 -20 43 -21 287
-24 l259 -3 105 -209 c123 -245 141 -265 234 -265 43 0 64 6 90 24 38 27 70
91 71 138 0 23 -121 274 -415 862 -452 904 -435 876 -526 885 -24 3 -53 2 -64
-1z"/>
</g>
</svg>
