<?xml version="1.0" standalone="no"?>
<!DOCTYPE svg PUBLIC "-//W3C//DTD SVG 20010904//EN"
 "http://www.w3.org/TR/2001/REC-SVG-20010904/DTD/svg10.dtd">
<svg version="1.0" xmlns="http://www.w3.org/2000/svg"
 width="512.000000pt" height="512.000000pt" viewBox="0 0 512.000000 512.000000"
 preserveAspectRatio="xMidYMid meet">

<g transform="translate(0.000000,512.000000) scale(0.100000,-0.100000)"
fill="#5C7AFF" stroke="none">
<path d="M642 4141 c-66 -23 -117 -63 -159 -125 -43 -63 -56 -116 -51 -201 8
-116 71 -211 176 -262 l57 -28 1895 0 1895 0 57 28 c62 30 115 83 150 149 19
36 23 58 23 138 0 80 -4 102 -23 138 -35 66 -88 119 -150 149 l-57 28 -1880 2
c-1801 2 -1882 2 -1933 -16z"/>
<path d="M642 2861 c-66 -23 -117 -63 -159 -125 -43 -63 -56 -116 -51 -201 8
-116 71 -211 176 -262 l57 -28 1595 0 1595 0 52 27 c116 62 178 162 178 288 0
126 -62 226 -178 288 l-52 27 -1580 2 c-1511 2 -1582 2 -1633 -16z"/>
<path d="M642 1581 c-66 -23 -117 -63 -159 -125 -43 -63 -56 -116 -51 -201 8
-116 71 -211 176 -262 l57 -28 990 0 990 0 51 27 c76 40 107 70 145 140 31 58
34 70 34 148 0 78 -3 90 -34 148 -37 69 -79 109 -151 144 l-45 23 -975 2
c-925 2 -978 2 -1028 -16z"/>
</g>
</svg>
