<?xml version="1.0" standalone="no"?>
<!DOCTYPE svg PUBLIC "-//W3C//DTD SVG 20010904//EN"
 "http://www.w3.org/TR/2001/REC-SVG-20010904/DTD/svg10.dtd">
<svg version="1.0" xmlns="http://www.w3.org/2000/svg"
 width="512.000000pt" height="512.000000pt" viewBox="0 0 512.000000 512.000000"
 preserveAspectRatio="xMidYMid meet">

<g transform="translate(0.000000,512.000000) scale(0.100000,-0.100000)"
fill="#5C7AFF" stroke="none">
<path d="M1040 4707 c-49 -16 -133 -102 -148 -153 -18 -60 -18 -3928 0 -3988
16 -55 99 -138 154 -154 60 -17 2968 -17 3028 0 55 16 138 99 154 154 9 30 12
198 12 634 l0 592 -32 -24 c-121 -92 -262 -82 -353 25 l-36 41 -343 -343
c-189 -190 -355 -350 -368 -357 -13 -7 -111 -38 -217 -68 -179 -51 -196 -58
-238 -96 -58 -54 -98 -70 -176 -70 -83 0 -157 42 -202 114 -26 43 -30 59 -30
120 1 81 16 118 75 181 31 33 42 59 69 155 18 63 45 158 61 210 l29 95 850
849 c467 467 863 858 880 868 l31 20 0 500 c0 364 -3 512 -12 542 -16 55 -99
138 -154 154 -56 16 -2981 16 -3034 -1z m2511 -656 c16 -16 29 -39 29 -51 0
-12 -13 -35 -29 -51 l-29 -29 -1067 0 -1066 0 -24 25 c-16 15 -25 36 -25 55 0
19 9 40 25 55 l24 25 1066 0 1067 0 29 -29z m0 -400 c16 -16 29 -39 29 -51 0
-12 -13 -35 -29 -51 l-29 -29 -1067 0 -1066 0 -24 25 c-16 15 -25 36 -25 55 0
19 9 40 25 55 l24 25 1066 0 1067 0 29 -29z m0 -400 c16 -16 29 -39 29 -51 0
-12 -13 -35 -29 -51 l-29 -29 -1067 0 -1066 0 -24 25 c-16 15 -25 36 -25 55 0
19 9 40 25 55 l24 25 1066 0 1067 0 29 -29z m-1200 -400 c37 -37 37 -65 0
-102 l-29 -29 -467 0 -466 0 -24 25 c-16 15 -25 36 -25 55 0 19 9 40 25 55
l24 25 466 0 467 0 29 -29z"/>
<path d="M4364 3392 c-61 -21 -111 -62 -261 -214 l-113 -113 210 -210 210
-210 50 50 50 49 55 -54 55 -54 -324 -326 c-214 -214 -327 -334 -331 -353 -13
-50 45 -107 97 -94 13 4 211 194 441 424 392 394 417 421 417 454 0 45 -34 79
-78 79 -23 0 -44 -11 -72 -37 l-41 -36 -54 53 -54 53 41 46 c63 71 88 133 88
217 0 205 -193 343 -386 276z"/>
<path d="M3287 2362 l-587 -587 210 -210 210 -210 588 588 587 587 -210 210
-210 210 -588 -588z"/>
<path d="M2551 1453 c-52 -184 -54 -189 -102 -240 -56 -59 -62 -91 -24 -128
39 -40 80 -34 135 20 44 44 53 47 226 96 98 28 182 54 186 58 4 4 -77 91 -180
194 l-188 188 -53 -188z"/>
</g>
</svg>
