<?xml version="1.0" standalone="no"?>
<!DOCTYPE svg PUBLIC "-//W3C//DTD SVG 20010904//EN"
 "http://www.w3.org/TR/2001/REC-SVG-20010904/DTD/svg10.dtd">
<svg version="1.0" xmlns="http://www.w3.org/2000/svg"
 width="512.000000pt" height="512.000000pt" viewBox="0 0 512.000000 512.000000"
 preserveAspectRatio="xMidYMid meet">

<g transform="translate(0.000000,512.000000) scale(0.100000,-0.100000)"
fill="#96C5B0" stroke="none">
<path d="M205 4902 c-65 -22 -109 -55 -146 -105 -62 -86 -59 5 -59 -1659 0
-979 4 -1553 10 -1616 18 -162 49 -296 126 -544 l74 -237 0 -240 c0 -234 1
-240 23 -266 14 -17 36 -28 63 -32 36 -5 46 -1 75 25 l34 30 3 256 3 255 -76
245 c-128 411 -138 489 -133 1064 l3 394 28 24 c41 35 99 33 138 -5 l29 -29 0
-157 0 -157 34 -34 c22 -22 44 -34 60 -34 35 0 83 25 96 49 6 12 10 107 10
236 0 229 7 272 48 294 36 19 89 13 119 -13 l28 -24 5 -242 5 -242 34 -30 c29
-26 39 -30 74 -25 22 3 49 15 61 26 20 21 21 33 26 327 l5 306 34 30 c29 26
39 30 74 25 22 -3 49 -15 61 -26 20 -21 21 -33 26 -327 l5 -306 33 -29 c37
-33 84 -38 121 -13 51 36 51 38 51 691 0 673 -3 641 64 663 42 14 97 -6 118
-42 10 -18 14 -177 18 -791 l5 -769 24 -19 c37 -31 70 -34 110 -13 30 16 53
53 162 254 70 129 139 244 153 257 31 27 74 30 116 8 30 -15 60 -61 60 -89 0
-24 -158 -674 -181 -746 -37 -113 -95 -209 -274 -454 l-175 -240 0 -272 c0
-269 0 -273 23 -299 29 -34 87 -44 123 -20 48 31 54 65 54 305 l0 220 153 209
c83 115 167 234 185 265 64 105 105 220 162 451 l56 230 194 0 194 0 57 -230
c84 -342 103 -381 338 -704 l160 -219 3 -242 3 -242 34 -30 c29 -26 39 -30 75
-25 27 4 49 15 63 32 23 26 23 30 23 299 l0 272 -175 240 c-179 245 -237 341
-274 454 -23 72 -181 722 -181 746 0 28 30 74 60 89 42 22 85 19 116 -8 14
-13 83 -128 153 -257 109 -201 132 -238 162 -254 42 -23 79 -17 115 19 l24 24
1 748 c0 552 3 757 12 783 17 49 72 76 122 60 68 -23 65 10 65 -663 0 -653 0
-655 51 -691 30 -21 78 -21 108 0 47 33 51 63 51 364 l0 282 29 29 c40 40 89
40 133 0 l33 -29 5 -306 c5 -294 6 -306 26 -327 12 -11 39 -23 61 -26 35 -5
45 -1 74 25 l34 30 5 242 5 242 28 24 c52 45 134 25 156 -38 7 -18 11 -118 11
-245 0 -128 4 -222 10 -234 13 -24 61 -49 96 -49 16 0 38 12 60 34 l34 34 0
157 0 157 29 29 c39 38 97 40 138 5 l28 -24 3 -394 c5 -575 -5 -653 -133
-1064 l-76 -245 3 -255 3 -256 34 -30 c29 -26 39 -30 74 -25 22 3 49 15 61 27
20 19 21 33 26 278 l5 257 68 215 c78 245 111 385 127 550 8 81 10 563 8 1640
l-3 1525 -28 57 c-32 64 -80 111 -146 142 l-46 21 -2320 2 c-2182 2 -2323 1
-2370 -15z m4681 -216 l34 -34 0 -972 c0 -856 -2 -971 -15 -966 -41 15 -113
16 -160 2 -49 -16 -50 -16 -65 6 -68 102 -148 148 -257 148 -41 0 -89 -6 -107
-14 -33 -14 -33 -14 -67 32 -19 26 -58 58 -89 76 -50 28 -63 31 -147 31 l-91
0 -4 215 c-4 242 -10 268 -84 350 -61 67 -123 94 -219 94 -67 0 -88 -4 -130
-26 -64 -34 -118 -90 -147 -153 -23 -50 -23 -52 -28 -604 l-5 -553 -35 62
c-42 74 -97 124 -162 148 -46 16 -48 18 -48 55 0 29 -7 46 -29 68 l-29 29
-376 0 c-269 0 -382 -3 -401 -12 -30 -13 -55 -55 -55 -91 0 -23 -4 -25 -67
-29 -113 -8 -193 -61 -253 -168 l-35 -62 -5 553 c-5 552 -5 554 -28 604 -29
63 -83 119 -147 153 -42 22 -63 26 -130 26 -93 0 -154 -25 -217 -91 -74 -76
-82 -111 -86 -353 l-4 -215 -91 0 c-84 0 -97 -3 -147 -31 -31 -18 -70 -50 -89
-76 -34 -46 -34 -46 -67 -32 -18 8 -66 14 -107 14 -109 0 -189 -46 -257 -148
-15 -22 -16 -22 -65 -6 -47 14 -119 13 -160 -2 -13 -5 -15 110 -15 966 l0 972
34 34 34 34 2292 0 2292 0 34 -34z m-2134 -2251 c-67 -76 -86 -179 -56 -307
l6 -28 -142 0 -142 0 8 38 c5 20 9 71 9 112 -1 84 -23 139 -78 198 l-31 32
233 0 233 0 -40 -45z"/>
<path d="M591 4346 c-47 -26 -63 -84 -37 -135 24 -46 50 -51 266 -51 l200 0
31 28 c26 24 32 36 32 72 0 36 -6 48 -32 72 l-31 28 -203 0 c-148 -1 -208 -4
-226 -14z"/>
<path d="M1309 4331 c-62 -62 -20 -171 65 -171 25 0 45 9 68 29 27 24 33 36
33 71 0 35 -6 47 -33 71 -44 40 -93 40 -133 0z"/>
<path d="M1689 4331 c-23 -23 -29 -38 -29 -71 0 -33 6 -48 29 -71 l29 -29 197
0 197 0 29 29 c23 23 29 38 29 71 0 33 -6 48 -29 71 l-29 29 -197 0 -197 0
-29 -29z"/>
<path d="M2511 4346 c-47 -26 -63 -84 -37 -135 23 -44 53 -51 224 -51 176 0
193 5 218 66 12 29 12 39 0 68 -25 61 -42 66 -221 66 -113 -1 -167 -5 -184
-14z"/>
<path d="M3349 4331 c-23 -23 -29 -38 -29 -71 0 -33 6 -48 29 -71 l29 -29 144
0 c160 0 179 6 204 66 12 29 12 39 0 68 -25 60 -44 66 -204 66 l-144 0 -29
-29z"/>
<path d="M4101 4346 c-67 -37 -65 -143 4 -174 41 -19 388 -16 425 3 35 18 50
43 50 85 0 42 -15 67 -50 85 -39 20 -392 21 -429 1z"/>
<path d="M591 3786 c-67 -37 -65 -143 4 -174 40 -19 487 -17 524 2 66 35 66
137 0 172 -39 20 -492 20 -528 0z"/>
<path d="M1848 3771 c-27 -24 -33 -36 -33 -71 0 -35 6 -47 33 -71 32 -28 35
-29 148 -29 114 0 116 0 145 29 23 23 29 38 29 71 0 33 -6 48 -29 71 -29 29
-31 29 -145 29 -113 0 -116 -1 -148 -29z"/>
<path d="M2381 3784 c-13 -9 -29 -32 -37 -50 -12 -29 -12 -39 0 -68 25 -61 42
-66 218 -66 171 0 201 7 224 51 27 52 8 115 -41 137 -16 8 -83 12 -183 12
-129 0 -162 -3 -181 -16z"/>
<path d="M3121 3784 c-13 -9 -29 -32 -37 -50 -12 -29 -12 -39 0 -68 17 -41 51
-66 91 -66 40 0 74 25 91 66 12 29 12 39 0 68 -17 41 -51 66 -91 66 -17 0 -41
-7 -54 -16z"/>
<path d="M4039 3771 c-23 -23 -29 -38 -29 -71 0 -33 6 -48 29 -71 l29 -29 227
0 227 0 29 29 c23 23 29 38 29 71 0 33 -6 48 -29 71 l-29 29 -227 0 -227 0
-29 -29z"/>
<path d="M591 3226 c-47 -26 -63 -84 -37 -135 22 -42 55 -51 182 -51 114 0
116 0 145 29 23 23 29 38 29 71 0 33 -6 48 -29 71 -29 29 -30 29 -148 29 -79
-1 -126 -5 -142 -14z"/>
<path d="M2088 3211 c-27 -24 -33 -36 -33 -71 0 -35 6 -47 33 -71 32 -29 34
-29 152 -29 131 0 164 9 186 51 27 52 8 115 -41 137 -15 7 -74 12 -145 12
-118 0 -120 0 -152 -29z"/>
<path d="M2804 3230 c-56 -22 -72 -108 -30 -157 24 -28 26 -28 156 -31 88 -3
142 0 161 9 32 13 59 54 59 89 0 33 -26 75 -55 88 -30 14 -258 15 -291 2z"/>
<path d="M4234 3230 c-56 -22 -72 -108 -30 -157 24 -28 25 -28 160 -31 l136
-4 30 30 c42 42 42 101 1 143 -29 29 -29 29 -153 28 -68 0 -133 -4 -144 -9z"/>
</g>
</svg>
